<svg width="139" height="161" viewBox="0 0 139 161" fill="none" xmlns="http://www.w3.org/2000/svg">
<path d="M18.304 160.877C18.2426 160.877 18.1812 160.816 18.1812 160.755V153.389H17.5055C17.4441 153.389 17.3827 153.328 17.3827 153.266V152.714C17.3827 152.591 17.4441 152.591 17.5055 152.591H18.9183C19.0411 152.591 19.0411 152.652 19.0411 152.714V155.783C19.0411 155.844 18.9797 156.213 18.9797 156.213H19.0411C19.2868 155.66 19.901 155.108 20.9452 155.108C22.5422 155.108 23.525 156.274 23.525 157.993C23.525 159.773 22.4808 160.939 20.9452 160.939C19.901 160.939 19.2868 160.325 19.0411 159.773V160.693C19.0411 160.816 18.9797 160.816 18.9183 160.816H18.304V160.877ZM22.6036 158.054C22.6036 156.765 21.8051 155.967 20.8224 155.967C19.901 155.967 19.0411 156.704 19.0411 158.054C19.0411 159.343 19.8396 160.202 20.8224 160.202C21.8666 160.141 22.6036 159.282 22.6036 158.054Z" fill="#B38D44"/>
<path d="M31.3256 160.877C31.0185 160.877 30.8342 160.755 30.8342 160.386V159.773C30.65 160.08 29.9743 160.939 28.5616 160.939C27.5174 160.939 26.6575 160.325 26.6575 159.343C26.6575 158.054 27.9474 157.502 29.7286 157.502H30.7114V157.379C30.7114 156.274 30.0972 155.906 29.2372 155.906C28.0088 155.906 27.5174 156.458 27.5174 156.458C27.456 156.458 27.3945 156.458 27.3331 156.397L27.026 155.967C26.9646 155.906 26.9646 155.844 27.026 155.783C27.0874 155.722 27.7017 155.046 29.2987 155.046C30.7728 155.046 31.6942 155.66 31.6942 157.379V160.08H32.3698C32.4926 160.08 32.4926 160.141 32.4926 160.202V160.693C32.4926 160.816 32.4312 160.816 32.3698 160.816H31.3256V160.877ZM30.7114 158.238H29.79C28.5616 158.238 27.6402 158.361 27.6402 159.282C27.6402 159.773 28.1316 160.202 28.8073 160.202C29.79 160.202 30.4043 159.527 30.7114 159.22V158.238Z" fill="#B38D44"/>
<path d="M35.8095 160.877C35.6866 160.877 35.6866 160.816 35.6866 160.755V160.264C35.6866 160.141 35.7481 160.141 35.8095 160.141H36.4237V156.028H35.8095C35.6866 156.028 35.6866 155.967 35.6866 155.906V155.414C35.6866 155.292 35.7481 155.292 35.8095 155.292H37.1608C37.2222 155.292 37.2836 155.353 37.2836 155.414V156.888H37.3451C37.3451 156.888 37.7136 155.292 39.802 155.292C39.9248 155.292 39.9248 155.353 39.9248 155.414V156.028C39.9248 156.151 39.8634 156.151 39.802 156.151H39.5563C38.1436 156.151 37.4065 157.256 37.4065 158.238V160.202H38.0207C38.0821 160.202 38.1436 160.264 38.1436 160.325V160.816C38.1436 160.939 38.0821 160.939 38.0207 160.939H35.8095V160.877Z" fill="#B38D44"/>
<path d="M42.9345 160.877C42.8731 160.877 42.8116 160.816 42.8116 160.755V160.264C42.8116 160.141 42.8731 160.141 42.9345 160.141H43.5487V156.028H42.9345C42.8731 156.028 42.8116 155.967 42.8116 155.906V155.414C42.8116 155.292 42.8731 155.292 42.9345 155.292H44.2858C44.3472 155.292 44.4086 155.353 44.4086 155.414V156.888H44.4701C44.4701 156.888 44.8386 155.292 46.927 155.292C47.0498 155.292 47.0498 155.353 47.0498 155.414V156.028C47.0498 156.151 46.9884 156.151 46.927 156.151H46.6813C45.2686 156.151 44.5315 157.256 44.5315 158.238V160.202H45.1457C45.2071 160.202 45.2686 160.264 45.2686 160.325V160.816C45.2686 160.939 45.2071 160.939 45.1457 160.939H42.9345V160.877Z" fill="#B38D44"/>
<path d="M50.121 160.877C49.9982 160.877 49.9982 160.816 49.9982 160.755V160.264C49.9982 160.141 50.0596 160.141 50.121 160.141H50.7352V156.028H50.121C49.9982 156.028 49.9982 155.967 49.9982 155.906V155.415C49.9982 155.292 50.0596 155.292 50.121 155.292H51.5952C51.718 155.292 51.718 155.353 51.718 155.415V160.202H52.3322C52.3937 160.202 52.4551 160.264 52.4551 160.325V160.816C52.4551 160.939 52.3937 160.939 52.3322 160.939H50.121V160.877ZM51.2266 154.617C50.8581 154.617 50.551 154.31 50.551 154.003C50.551 153.635 50.8581 153.328 51.2266 153.328C51.5952 153.328 51.9023 153.635 51.9023 154.003C51.8408 154.31 51.5952 154.617 51.2266 154.617Z" fill="#B38D44"/>
<path d="M55.5262 158.054C55.5262 156.212 56.8161 155.169 58.4131 155.169C60.0101 155.169 61.3 156.274 61.3 158.054C61.3 159.834 60.0715 161 58.4131 161C56.7547 161 55.5262 159.834 55.5262 158.054ZM60.3172 158.054C60.3172 156.765 59.3959 155.967 58.4131 155.967C57.4304 155.967 56.509 156.765 56.509 158.054C56.509 159.343 57.3689 160.202 58.4131 160.202C59.4573 160.141 60.3172 159.343 60.3172 158.054Z" fill="#B38D44"/>
<path d="M75.0588 160.877C74.7516 160.877 74.5674 160.755 74.5674 160.386V159.773C74.3831 160.08 73.7075 160.939 72.2947 160.939C71.2505 160.939 70.3906 160.325 70.3906 159.343C70.3906 158.054 71.6805 157.502 73.4618 157.502H74.4445V157.379C74.4445 156.274 73.8303 155.906 72.9704 155.906C71.7419 155.906 71.2505 156.458 71.2505 156.458C71.1891 156.458 71.1277 156.458 71.0663 156.397L70.7592 155.967C70.6977 155.906 70.6977 155.844 70.7592 155.783C70.8206 155.722 71.4348 155.046 73.0318 155.046C74.506 155.046 75.4273 155.66 75.4273 157.379V160.08H76.103C76.2258 160.08 76.2258 160.141 76.2258 160.202V160.693C76.2258 160.816 76.1644 160.816 76.103 160.816H75.0588V160.877ZM74.4445 158.238H73.5232C72.2947 158.238 71.3734 158.361 71.3734 159.282C71.3734 159.773 71.8648 160.202 72.5404 160.202C73.5232 160.202 74.1374 159.527 74.4445 159.22V158.238Z" fill="#B38D44"/>
<path d="M79.7269 160.877C79.6655 160.877 79.604 160.816 79.604 160.755V153.389H78.9284C78.867 153.389 78.8055 153.328 78.8055 153.266V152.714C78.8055 152.591 78.867 152.591 78.9284 152.591H80.3411C80.464 152.591 80.464 152.652 80.464 152.714V155.783C80.464 155.844 80.4025 156.213 80.4025 156.213H80.464C80.7096 155.66 81.3239 155.108 82.3681 155.108C83.9651 155.108 84.9478 156.274 84.9478 157.993C84.9478 159.773 83.9036 160.939 82.3681 160.939C81.3239 160.939 80.7096 160.325 80.464 159.773V160.693C80.464 160.816 80.4025 160.816 80.3411 160.816H79.7269V160.877ZM84.0265 158.054C84.0265 156.765 83.228 155.967 82.2452 155.967C81.3239 155.967 80.464 156.704 80.464 158.054C80.464 159.343 81.2625 160.202 82.2452 160.202C83.2894 160.141 84.0265 159.282 84.0265 158.054Z" fill="#B38D44"/>
<path d="M88.2647 160.877C88.1418 160.877 88.1418 160.816 88.1418 160.755V160.264C88.1418 160.141 88.2033 160.141 88.2647 160.141H88.8789V156.028H88.2647C88.1418 156.028 88.1418 155.967 88.1418 155.906V155.415C88.1418 155.292 88.2033 155.292 88.2647 155.292H89.7388C89.8617 155.292 89.8617 155.353 89.8617 155.415V160.202H90.4759C90.5373 160.202 90.5988 160.264 90.5988 160.325V160.816C90.5988 160.939 90.5373 160.939 90.4759 160.939H88.2647V160.877ZM89.3703 154.617C89.0018 154.617 88.6947 154.31 88.6947 154.003C88.6947 153.635 89.0018 153.328 89.3703 153.328C89.7388 153.328 90.046 153.635 90.046 154.003C89.9845 154.31 89.7388 154.617 89.3703 154.617Z" fill="#B38D44"/>
<path d="M94.6527 158.177C94.7141 159.527 95.6355 160.202 96.5568 160.202C97.5396 160.202 98.2152 159.588 98.3995 159.343C98.4609 159.281 98.5223 159.281 98.5838 159.281L98.8909 159.588C98.9523 159.65 99.0137 159.711 98.9523 159.772C98.8294 160.018 98.031 161 96.4954 161C94.9598 161 93.6699 159.895 93.6699 158.054C93.6699 156.151 95.0212 155.169 96.3725 155.169C98.031 155.169 98.9523 156.274 98.9523 158.054C98.9523 158.115 98.8909 158.177 98.768 158.177H94.6527ZM98.031 157.44C97.9695 156.519 97.4167 155.844 96.434 155.844C95.6355 155.844 94.837 156.335 94.7141 157.44H98.031Z" fill="#B38D44"/>
<path d="M102.33 160.877C102.208 160.877 102.208 160.816 102.208 160.755V160.264C102.208 160.141 102.269 160.141 102.33 160.141H102.945V156.028H102.33C102.208 156.028 102.208 155.967 102.208 155.906V155.414C102.208 155.292 102.269 155.292 102.33 155.292H103.682C103.805 155.292 103.805 155.353 103.805 155.414V156.888H103.866C103.866 156.888 104.235 155.292 106.323 155.292C106.446 155.292 106.446 155.353 106.446 155.414V156.028C106.446 156.151 106.384 156.151 106.323 156.151H106.077C104.665 156.151 103.927 157.256 103.927 158.238V160.202H104.542C104.603 160.202 104.665 160.264 104.665 160.325V160.816C104.665 160.939 104.603 160.939 104.542 160.939H102.33V160.877Z" fill="#B38D44"/>
<path d="M113.264 160.325C113.325 160.386 113.325 160.448 113.264 160.57C113.141 160.693 112.772 161 112.097 161C110.93 161 110.254 160.325 110.254 159.036V156.028H109.517C109.394 156.028 109.333 155.967 109.333 155.906V155.415C109.333 155.292 109.394 155.292 109.517 155.292H110.193V154.126C110.193 154.064 110.254 153.941 110.377 153.941H111.053C111.175 153.941 111.175 154.003 111.175 154.126V155.292H112.65C112.772 155.292 112.834 155.353 112.834 155.415V155.906C112.834 156.028 112.772 156.028 112.65 156.028H111.175V159.036C111.175 159.834 111.544 160.202 112.158 160.202C112.527 160.202 112.711 160.018 112.772 159.957C112.834 159.895 112.895 159.895 112.957 159.957L113.264 160.325Z" fill="#B38D44"/>
<path d="M115.966 158.054C115.966 156.212 117.256 155.169 118.853 155.169C120.45 155.169 121.74 156.274 121.74 158.054C121.74 159.834 120.512 161 118.853 161C117.195 161 115.966 159.834 115.966 158.054ZM120.757 158.054C120.757 156.765 119.836 155.967 118.853 155.967C117.871 155.967 116.949 156.765 116.949 158.054C116.949 159.343 117.809 160.202 118.853 160.202C119.836 160.141 120.757 159.343 120.757 158.054Z" fill="#B38D44"/>
<path d="M8.2306 135.466C8.72198 135.036 9.0291 134.361 9.0291 133.686C9.0291 132.029 7.86206 130.985 6.08079 130.985H2.08831C1.78119 130.985 1.59692 131.169 1.59692 131.476V132.09C1.59692 132.335 1.78119 132.581 2.08831 132.581H2.70254V139.026H2.08831C1.78119 139.026 1.59692 139.21 1.59692 139.456V140.069C1.59692 140.315 1.78119 140.499 2.08831 140.499H6.08079C8.2306 140.499 9.45905 139.456 9.45905 137.614C9.45905 136.632 9.02909 135.834 8.2306 135.466ZM4.42238 136.325H6.08079C7.80064 136.325 7.80064 137.246 7.80064 137.553C7.80064 137.921 7.80064 138.965 6.01937 138.965H4.42238V136.325ZM6.01937 134.852H4.42238V132.52H5.89653C6.81787 132.52 7.30925 132.949 7.30925 133.747C7.30925 134.791 6.20364 134.852 6.01937 134.852Z" fill="#B38D44"/>
<path d="M24.5077 130.924H17.8741C17.567 130.924 17.3827 131.108 17.3827 131.353V131.967C17.3827 132.213 17.567 132.397 17.8741 132.397H18.4883V138.842H17.8741C17.567 138.842 17.3827 139.026 17.3827 139.272V139.885C17.3827 140.131 17.567 140.315 17.8741 140.315H24.4463C24.692 140.315 24.9377 140.131 24.9377 139.885V137.86C24.9377 137.614 24.7534 137.43 24.4463 137.43H23.7707C23.525 137.43 23.2793 137.614 23.2793 137.86V138.78H20.1467V136.387H22.9722C23.2179 136.387 23.4636 136.203 23.4636 135.957V135.343C23.4636 135.098 23.2793 134.914 22.9722 134.914H20.1467V132.458H23.2793V133.379C23.2793 133.625 23.4636 133.87 23.7092 133.87H24.3849C24.6306 133.87 24.8763 133.686 24.8763 133.379V131.353C24.9377 131.169 24.7534 130.924 24.5077 130.924Z" fill="#B38D44"/>
<path d="M40.662 137.553H39.9863C39.7406 137.553 39.495 137.737 39.495 137.983V138.903H36.1781V132.458H36.7923C37.038 132.458 37.2837 132.274 37.2837 131.967V131.354C37.2837 131.108 37.0995 130.863 36.7923 130.863H33.844C33.5369 130.863 33.3527 131.047 33.3527 131.292V131.906C33.3527 132.152 33.5369 132.336 33.844 132.336H34.4583V138.781H33.844C33.5369 138.781 33.3527 138.965 33.3527 139.21V139.824C33.3527 140.07 33.5369 140.254 33.844 140.254H40.662C40.9077 140.254 41.1534 140.07 41.1534 139.763V137.799C41.1534 137.737 40.9691 137.553 40.662 137.553Z" fill="#B38D44"/>
<path d="M56.509 130.924H53.745C53.4993 130.924 53.2536 131.108 53.2536 131.353V131.967C53.2536 132.213 53.4379 132.397 53.745 132.397H54.1136L52.0252 137.983L49.9368 132.397H50.3053C50.551 132.397 50.7353 132.213 50.7353 131.967V131.353C50.7353 131.108 50.551 130.924 50.3053 130.924H47.5413C47.2956 130.924 47.0499 131.108 47.0499 131.353V131.967C47.0499 132.213 47.2342 132.397 47.5413 132.397H48.0941L50.9196 139.701C51.0424 140.069 51.2267 140.376 51.7795 140.376H52.2709C52.8851 140.376 53.0694 139.947 53.1308 139.701L55.8948 132.397H56.509C56.7547 132.397 57.0004 132.213 57.0004 131.967V131.353C57.0004 131.169 56.8162 130.924 56.509 130.924Z" fill="#B38D44"/>
<path d="M71.9262 130.924H65.2925C64.9854 130.924 64.8011 131.108 64.8011 131.353V131.967C64.8011 132.213 64.9854 132.397 65.2925 132.397H65.9068V138.842H65.2925C64.9854 138.842 64.8011 139.026 64.8011 139.272V139.885C64.8011 140.131 64.9854 140.315 65.2925 140.315H71.8648C72.1105 140.315 72.3562 140.131 72.3562 139.885V137.86C72.3562 137.614 72.1719 137.43 71.8648 137.43H71.1891C70.9434 137.43 70.6977 137.614 70.6977 137.86V138.78H67.5652V136.387H70.3906C70.6363 136.387 70.882 136.203 70.882 135.957V135.343C70.882 135.098 70.6977 134.914 70.3906 134.914H67.5652V132.458H70.6977V133.379C70.6977 133.625 70.882 133.87 71.1277 133.87H71.8034C72.0491 133.87 72.2947 133.686 72.2947 133.379V131.353C72.3562 131.169 72.1719 130.924 71.9262 130.924Z" fill="#B38D44"/>
<path d="M84.5793 130.924H81.2011C80.9554 130.924 80.7711 131.108 80.7711 131.353V131.967C80.7711 132.213 80.9554 132.397 81.2011 132.397H81.8767V138.842H81.2011C80.9554 138.842 80.7711 139.026 80.7711 139.272V139.885C80.7711 140.131 80.9554 140.315 81.2011 140.315H84.7636C87.5891 140.315 89.3703 138.474 89.3703 135.527C89.3703 132.765 87.5276 130.924 84.5793 130.924ZM87.5891 135.711C87.5891 137.86 86.5449 138.903 84.4565 138.903H83.5351V132.458H84.3951C87.0363 132.52 87.5891 134.238 87.5891 135.711Z" fill="#B38D44"/>
<path d="M104.48 130.924H97.8466C97.5395 130.924 97.3552 131.108 97.3552 131.353V131.967C97.3552 132.213 97.5395 132.397 97.8466 132.397H98.4608V138.842H97.8466C97.5395 138.842 97.3552 139.026 97.3552 139.272V139.885C97.3552 140.131 97.5395 140.315 97.8466 140.315H104.419C104.665 140.315 104.91 140.131 104.91 139.885V137.86C104.91 137.614 104.726 137.43 104.419 137.43H103.743C103.498 137.43 103.252 137.614 103.252 137.86V138.78H100.119V136.387H102.945C103.19 136.387 103.436 136.203 103.436 135.957V135.343C103.436 135.098 103.252 134.914 102.945 134.914H100.119V132.458H103.252V133.379C103.252 133.625 103.436 133.87 103.682 133.87H104.357C104.603 133.87 104.849 133.686 104.849 133.379V131.353C104.91 131.169 104.726 130.924 104.48 130.924Z" fill="#B38D44"/>
<path d="M121.187 138.965H120.635L119.652 137.123C119.529 136.939 119.467 136.755 119.345 136.571C120.389 136.141 120.942 135.22 120.942 133.993C120.942 132.151 119.652 130.985 117.625 130.985H113.817C113.509 130.985 113.325 131.169 113.325 131.415V132.029C113.325 132.274 113.509 132.458 113.817 132.458H114.431V138.903H113.817C113.509 138.903 113.325 139.087 113.325 139.333V139.947C113.325 140.192 113.509 140.376 113.817 140.376H116.949C117.195 140.376 117.379 140.192 117.379 139.947V139.333C117.379 139.087 117.195 138.903 116.949 138.903H116.151V136.878H117.379C117.625 136.878 117.748 137 117.87 137.307L119.038 139.701C119.222 140.069 119.467 140.438 120.082 140.438H121.187C121.433 140.438 121.617 140.253 121.617 140.008V139.394C121.679 139.149 121.494 138.965 121.187 138.965ZM119.283 133.993C119.283 134.975 118.73 135.404 117.502 135.404H116.212V132.52H117.502C119.283 132.52 119.283 133.624 119.283 133.993Z" fill="#B38D44"/>
<path d="M136.297 133.87H136.973C137.219 133.87 137.464 133.686 137.464 133.379V131.353C137.464 131.108 137.28 130.924 136.973 130.924H130.401C130.094 130.924 129.909 131.108 129.909 131.353V131.967C129.909 132.213 130.094 132.397 130.401 132.397H131.015V138.842H130.401C130.094 138.842 129.909 139.026 129.909 139.272V139.885C129.909 140.131 130.094 140.315 130.401 140.315H136.973C137.219 140.315 137.464 140.131 137.464 139.885V137.86C137.464 137.614 137.28 137.43 136.973 137.43H136.297C136.052 137.43 135.806 137.614 135.806 137.86V138.78H132.673V136.387H135.499C135.745 136.387 135.99 136.203 135.99 135.896V135.282C135.99 135.036 135.806 134.852 135.499 134.852H132.673V132.397H135.806V133.318C135.867 133.686 136.052 133.87 136.297 133.87Z" fill="#B38D44"/>
<path d="M104.849 25.9024C104.849 35.846 95.9426 45.1144 79.9726 46.4034C119.406 46.4034 120.819 98.4537 80.5868 98.4537H28.8688V96.4281H36.6695V1.78002H28.8688V0H68.548C97.9695 0 104.849 7.54975 104.849 25.9024ZM70.4521 2.27106H52.8851V44.1323H72.2333C90.4145 44.1323 90.783 2.27106 70.4521 2.27106ZM71.6805 46.5261H52.8237V96.4281H74.5674C97.8467 96.4281 96.1883 46.5261 71.6805 46.5261Z" fill="#B38D44"/>
<path d="M139 118.218H0V120.673H139V118.218Z" fill="#B38D44"/>
</svg>
